# File exported by Houdini 17.5.229 (www.sidefx.com)
# 128 points
# 484 vertices
# 123 primitives
# Bounds: [-2, 0, -0.150000006] to [2, 4, 0.150000006]
g 
v 0.968499959 0 0.0649999976
v 0.974999964 0 0.0584999993
v 0.974999964 2.8599999 0.0584999993
v 0.968499959 2.8599999 0.0649999976
v 0.974999964 0 -0.0584999993
v 0.968499959 0 -0.0649999976
v 0.968499959 2.8599999 -0.0649999976
v 0.974999964 2.8599999 -0.0584999993
v 0.584999979 0 0.0584999993
v 0.591499984 0 0.0649999976
v 0.591499984 2.8599999 0.0649999976
v 0.584999979 2.8599999 0.0584999993
v 0.591499984 0 -0.0649999976
v 0.584999979 0 -0.0584999993
v 0.584999979 2.8599999 -0.0584999993
v 0.591499984 2.8599999 -0.0649999976
v 0.578500032 0 0.0649999976
v 0.578500032 2.8599999 0.0649999976
v 0.578500032 0 -0.0649999976
v 0.578500032 2.8599999 -0.0649999976
v 0.195000008 0 0.0584999993
v 0.201499999 0 0.0649999976
v 0.201499999 2.8599999 0.0649999976
v 0.195000008 2.8599999 0.0584999993
v 0.201499999 0 -0.0649999976
v 0.195000008 0 -0.0584999993
v 0.195000008 2.8599999 -0.0584999993
v 0.201499999 2.8599999 -0.0649999976
v 0.188500002 0 0.0649999976
v 0.188500002 2.8599999 0.0649999976
v 0.188500002 0 -0.0649999976
v 0.188500002 2.8599999 -0.0649999976
v -0.195000008 0 0.0584999993
v -0.188500002 0 0.0649999976
v -0.188500002 2.8599999 0.0649999976
v -0.195000008 2.8599999 0.0584999993
v -0.188500002 0 -0.0649999976
v -0.195000008 0 -0.0584999993
v -0.195000008 2.8599999 -0.0584999993
v -0.188500002 2.8599999 -0.0649999976
v -0.201499999 0 0.0649999976
v -0.201499999 2.8599999 0.0649999976
v -0.201499999 0 -0.0649999976
v -0.201499999 2.8599999 -0.0649999976
v -0.584999979 0 0.0584999993
v -0.578500032 0 0.0649999976
v -0.578500032 2.8599999 0.0649999976
v -0.584999979 2.8599999 0.0584999993
v -0.578500032 0 -0.0649999976
v -0.584999979 0 -0.0584999993
v -0.584999979 2.8599999 -0.0584999993
v -0.578500032 2.8599999 -0.0649999976
v -0.591499984 0 0.0649999976
v -0.591499984 2.8599999 0.0649999976
v -0.591499984 0 -0.0649999976
v -0.591499984 2.8599999 -0.0649999976
v -0.974999964 0 0.0584999993
v -0.968499959 0 0.0649999976
v -0.968499959 2.8599999 0.0649999976
v -0.974999964 2.8599999 0.0584999993
v -0.968499959 0 -0.0649999976
v -0.974999964 0 -0.0584999993
v -0.974999964 2.8599999 -0.0584999993
v -0.968499959 2.8599999 -0.0649999976
v -0.995000005 0.600000024 0.0700000003
v -0.995000005 0.600000024 -0.0700000003
v 0.795000017 0.600000024 -0.0700000003
v 0.795000017 0.600000024 0.0700000003
v -1 0.595000029 -0.0700000003
v -1 0.595000029 0.0700000003
v -1 0.405000001 0.0700000003
v -1 0.405000001 -0.0700000003
v 0.795000017 0.595000029 -0.075000003
v -0.995000005 0.595000029 -0.075000003
v -0.995000005 0.405000001 -0.075000003
v 0.795000017 0.405000001 -0.075000003
v -0.995000005 2.21000004 0.0700000003
v -0.995000005 2.21000004 -0.0700000003
v 0.795000017 2.21000004 -0.0700000003
v 0.795000017 2.21000004 0.0700000003
v -1 2.20499992 -0.0700000003
v -1 2.20499992 0.0700000003
v -1 2.0150001 0.0700000003
v -1 2.0150001 -0.0700000003
v 0.795000017 2.20499992 -0.075000003
v -0.995000005 2.20499992 -0.075000003
v -0.995000005 2.0150001 -0.075000003
v 0.795000017 2.0150001 -0.075000003
v -0.995000005 2.20499992 0.075000003
v 0.795000017 2.20499992 0.075000003
v 0.795000017 2.0150001 0.075000003
v -0.995000005 2.0150001 0.075000003
v 0.800000012 2.20499992 0.0700000003
v 0.800000012 2.20499992 -0.0700000003
v 0.800000012 2.0150001 -0.0700000003
v 0.800000012 2.0150001 0.0700000003
v 0.795000017 2.00999999 -0.0700000003
v -0.995000005 2.00999999 -0.0700000003
v -0.995000005 2.00999999 0.0700000003
v 0.795000017 2.00999999 0.0700000003
v -0.995000005 0.595000029 0.075000003
v 0.795000017 0.595000029 0.075000003
v 0.795000017 0.405000001 0.075000003
v -0.995000005 0.405000001 0.075000003
v 0.800000012 0.595000029 0.0700000003
v 0.800000012 0.595000029 -0.0700000003
v 0.800000012 0.405000001 -0.0700000003
v 0.800000012 0.405000001 0.0700000003
v 0.795000017 0.400000006 -0.0700000003
v -0.995000005 0.400000006 -0.0700000003
v -0.995000005 0.400000006 0.0700000003
v 0.795000017 0.400000006 0.0700000003
v 2 0 0.150000006
v 2 4 0.150000006
v 2 4 -0.150000006
v 2 0 -0.150000006
v -2 0 -0.150000006
v -2 4 -0.150000006
v -2 4 0.150000006
v -2 0 0.150000006
v 0.974999964 0 0.150000006
v 0.974999964 2.8599999 0.150000006
v -0.974999964 2.8599999 0.150000006
v -0.974999964 0 0.150000006
v -0.974999964 0 -0.150000006
v -0.974999964 2.8599999 -0.150000006
v 0.974999964 2.8599999 -0.150000006
v 0.974999964 0 -0.150000006
vn 0.707106352 -0 0.707107306
vn 0.707106352 -0 0.707107306
vn 0.707106352 -0 0.707107306
vn 0.707106352 -0 0.707107306
vn 0.707106352 0 -0.707107306
vn 0.707106352 0 -0.707107306
vn 0.707106352 0 -0.707107306
vn 0.707106352 0 -0.707107306
vn -0.707106352 0 0.707107306
vn -0.707106352 0 0.707107306
vn -0.707106352 0 0.707107306
vn -0.707106352 0 0.707107306
vn -0.707106352 0 -0.707107306
vn -0.707106352 0 -0.707107306
vn -0.707106352 0 -0.707107306
vn -0.707106352 0 -0.707107306
vn 0 -0 1
vn 0 -0 1
vn 0 -0 1
vn 0 0 1
vn 0 0 -1
vn 0 0 -1
vn 0 0 -1
vn -0 0 -1
vn -0 -1 0
vn 0 -1 0
vn -0 -1 0
vn 0 -1 -0
vn 0 1 0
vn 0 1 0
vn 0 1 0
vn 0 1 0
vn 0.70710963 -0 0.707103968
vn 0.70710963 -0 0.707103968
vn 0.70710963 -0 0.707103968
vn 0.70710963 -0 0.707103968
vn 0.70710963 0 -0.707103968
vn 0.70710963 0 -0.707103968
vn 0.70710963 0 -0.707103968
vn 0.70710963 0 -0.707103968
vn -0.707107186 0 0.707106471
vn -0.707107127 0 0.707106471
vn -0.707107127 0 0.707106471
vn -0.707107127 0 0.707106471
vn -0.707107127 0 -0.707106471
vn -0.707107127 0 -0.707106471
vn -0.707107186 0 -0.707106471
vn -0.707107127 0 -0.707106471
vn 0 -0 1
vn 0 -0 1
vn 0 -0 1
vn 0 0 1
vn 0 0 -1
vn 0 0 -1
vn 0 0 -1
vn -0 0 -1
vn -0 -1 0
vn 0 -1 0
vn -0 -1 0
vn 0 -1 -0
vn 0 1 0
vn 0 1 0
vn 0 1 0
vn 0 1 0
vn 0.707106352 -0 0.707107306
vn 0.707106352 -0 0.707107306
vn 0.707106352 -0 0.707107306
vn 0.707106352 -0 0.707107306
vn 0.707106352 0 -0.707107306
vn 0.707106352 0 -0.707107306
vn 0.707106352 0 -0.707107306
vn 0.707106352 0 -0.707107306
vn -0.707106352 0 0.707107306
vn -0.707106352 0 0.707107306
vn -0.707106352 0 0.707107306
vn -0.707106352 0 0.707107306
vn -0.707106352 0 -0.707107306
vn -0.707106352 0 -0.707107306
vn -0.707106352 0 -0.707107306
vn -0.707106352 0 -0.707107306
vn 0 -0 1
vn 0 -0 1
vn 0 -0 1
vn 0 0 1
vn 0 0 -1
vn 0 0 -1
vn 0 0 -1
vn -0 0 -1
vn -0 -1 0
vn 0 -1 0
vn -0 -1 0
vn 0 -1 -0
vn 0 1 0
vn 0 1 0
vn 0 1 0
vn 0 1 0
vn 0.707107127 -0 0.707106471
vn 0.707107127 -0 0.707106471
vn 0.707107186 -0 0.707106471
vn 0.707107127 -0 0.707106471
vn 0.707107186 0 -0.707106471
vn 0.707107127 0 -0.707106471
vn 0.707107127 0 -0.707106471
vn 0.707107127 0 -0.707106471
vn -0.70710963 0 0.707103968
vn -0.70710963 0 0.707103968
vn -0.70710963 0 0.707103968
vn -0.70710963 0 0.707103968
vn -0.70710963 0 -0.707103968
vn -0.70710963 0 -0.707103968
vn -0.70710963 0 -0.707103968
vn -0.70710963 0 -0.707103968
vn 0 -0 1
vn 0 -0 1
vn 0 -0 1
vn 0 0 1
vn 0 0 -1
vn 0 0 -1
vn 0 0 -1
vn -0 0 -1
vn -0 -1 0
vn 0 -1 0
vn -0 -1 0
vn 0 -1 -0
vn 0 1 0
vn 0 1 0
vn 0 1 0
vn 0 1 0
vn 0.707106352 -0 0.707107306
vn 0.707106352 -0 0.707107306
vn 0.707106352 -0 0.707107306
vn 0.707106352 -0 0.707107306
vn 0.707106352 0 -0.707107306
vn 0.707106352 0 -0.707107306
vn 0.707106352 0 -0.707107306
vn 0.707106352 0 -0.707107306
vn -0.707106352 0 0.707107306
vn -0.707106352 0 0.707107306
vn -0.707106352 0 0.707107306
vn -0.707106352 0 0.707107306
vn -0.707106352 0 -0.707107306
vn -0.707106352 0 -0.707107306
vn -0.707106352 0 -0.707107306
vn -0.707106352 0 -0.707107306
vn 0 -0 1
vn 0 -0 1
vn 0 -0 1
vn 0 0 1
vn 0 0 -1
vn 0 0 -1
vn 0 0 -1
vn -0 0 -1
vn -0 -1 0
vn 0 -1 0
vn 0 -1 -0
vn 0 -1 -0
vn 0 1 0
vn 0 1 0
vn 0 1 0
vn 0 1 0
vn 1 0 -0
vn 1 -0 0
vn 1 0 -0
vn 1 0 0
vn 0 1 0
vn 0 1 0
vn 0 1 0
vn 0 1 0
vn 0 1 0
vn 0 1 0
vn 0 1 0
vn 0 1 0
vn 0 -1 -0
vn 0 -1 0
vn -0 -1 0
vn 0 -1 0
vn -0 -1 0
vn 0 -1 0
vn 0 -1 0
vn -0 -1 0
vn 0 1 0
vn 0 1 0
vn 0 1 0
vn 0 1 0
vn 0 1 0
vn 0 1 0
vn 0 1 0
vn 0 1 0
vn 0 -1 -0
vn 0 -1 0
vn -0 -1 0
vn 0 -1 0
vn -0 -1 0
vn 0 -1 0
vn 0 -1 0
vn -0 -1 0
vn 0 1 0
vn 0 1 0
vn 0 1 0
vn 0 1 0
vn 0 1 0
vn 0 1 0
vn 0 1 0
vn 0 1 0
vn 0 -1 -0
vn 0 -1 0
vn -0 -1 0
vn 0 -1 0
vn -0 -1 0
vn 0 -1 0
vn 0 -1 0
vn -0 -1 0
vn 0 1 0
vn 0 1 0
vn 0 1 0
vn 0 1 0
vn 0 1 0
vn 0 1 0
vn 0 1 0
vn 0 1 0
vn 0 -1 -0
vn 0 -1 0
vn -0 -1 0
vn 0 -1 0
vn -0 -1 0
vn 0 -1 0
vn 0 -1 0
vn -0 -1 0
vn 0 1 0
vn 0 1 0
vn 0 1 0
vn 0 1 0
vn 0 1 0
vn 0 1 0
vn 0 1 0
vn 0 1 0
vn 0 -1 -0
vn 0 -1 0
vn -0 -1 0
vn 0 -1 -0
vn -0 -1 0
vn 0 -1 0
vn 0 -1 0
vn -0 -1 0
vn -0.707106769 0.707106769 0
vn -0.707106769 0.707106769 0
vn -0.707106769 0.707106769 0
vn -0.707106769 0.707106769 0
vn 0 0.707107365 -0.707106292
vn 0 0.707107365 -0.707106292
vn 0 0.707107365 -0.707106292
vn 0 0.707107365 -0.707106292
vn 0.707106769 0.707106769 0
vn 0.707106769 0.707106769 0
vn 0.707106769 0.707106769 0
vn 0.707106769 0.707106769 0
vn 0 0.707107365 0.707106292
vn 0 0.707107365 0.707106292
vn 0 0.707107365 0.707106292
vn 0 0.707107365 0.707106292
vn -0.707107365 0 0.707106292
vn -0.707107365 0 0.707106292
vn -0.707107365 0 0.707106292
vn -0.707107365 0 0.707106292
vn -0.707106769 -0.707106769 0
vn -0.707106769 -0.707106769 0
vn -0.707106769 -0.707106769 0
vn -0.707106769 -0.707106769 0
vn -0.707107365 0 -0.707106292
vn -0.707107365 0 -0.707106292
vn -0.707107365 0 -0.707106292
vn -0.707107365 0 -0.707106292
vn -0 -0.707107365 -0.707106292
vn 0 -0.707107365 -0.707106292
vn 0 -0.707107365 -0.707106292
vn -0 -0.707107365 -0.707106292
vn 0.707107365 0 -0.707106292
vn 0.707107365 0 -0.707106292
vn 0.707107365 0 -0.707106292
vn 0.707107365 0 -0.707106292
vn -0.707115233 0.707098424 0
vn -0.707115233 0.707098424 0
vn -0.707115233 0.707098424 0
vn -0.707115233 0.707098424 0
vn 0 0.707098901 -0.707114637
vn 0 0.707098901 -0.707114637
vn 0 0.707098901 -0.707114637
vn 0 0.707098901 -0.707114637
vn 0.707115233 0.707098424 0
vn 0.707115233 0.707098424 0
vn 0.707115233 0.707098424 0
vn 0.707115233 0.707098424 0
vn 0 0.707098901 0.707114637
vn 0 0.707098901 0.707114637
vn 0 0.707098901 0.707114637
vn 0 0.707098901 0.707114637
vn -0.707107365 0 0.707106292
vn -0.707107365 0 0.707106292
vn -0.707107365 0 0.707106292
vn -0.707107365 0 0.707106292
vn -0.707115233 -0.707098424 0
vn -0.707115233 -0.707098424 0
vn -0.707115233 -0.707098424 0
vn -0.707115233 -0.707098424 0
vn -0.707107365 0 -0.707106292
vn -0.707107365 0 -0.707106292
vn -0.707107365 0 -0.707106292
vn -0.707107365 0 -0.707106292
vn -0 -0.707098901 -0.707114637
vn 0 -0.707098901 -0.707114637
vn 0 -0.707098901 -0.707114637
vn -0 -0.707098901 -0.707114637
vn 0.707107365 0 -0.707106292
vn 0.707107365 0 -0.707106292
vn 0.707107365 0 -0.707106292
vn 0.707107365 0 -0.707106292
vn 0.707107365 -0 0.707106292
vn 0.707107365 -0 0.707106292
vn 0.707107365 -0 0.707106292
vn 0.707107365 -0 0.707106292
vn 0 -0.707098901 0.707114637
vn 0 -0.707098901 0.707114637
vn 0 -0.707098901 0.707114637
vn 0 -0.707098901 0.707114637
vn 0.707115233 -0.707098424 -0
vn 0.707115233 -0.707098424 0
vn 0.707115233 -0.707098424 0
vn 0.707115233 -0.707098424 -0
vn 0.707107365 -0 0.707106292
vn 0.707107365 -0 0.707106292
vn 0.707107365 -0 0.707106292
vn 0.707107365 -0 0.707106292
vn 0 -0.707107365 0.707106292
vn 0 -0.707107365 0.707106292
vn 0 -0.707107365 0.707106292
vn 0 -0.707107365 0.707106292
vn 0.707106769 -0.707106769 -0
vn 0.707106769 -0.707106769 0
vn 0.707106769 -0.707106769 0
vn 0.707106769 -0.707106769 -0
vn -0.577350497 0.577350497 0.577349603
vn -0.577350497 0.577350497 0.577349663
vn -0.577350497 0.577350497 0.577349603
vn -0.577350497 0.577350497 -0.577349603
vn -0.577350497 0.577350497 -0.577349663
vn -0.577350497 0.577350497 -0.577349603
vn 0.577350497 0.577350497 -0.577349603
vn 0.577350497 0.577350497 -0.577349603
vn 0.577350497 0.577350497 -0.577349663
vn -0.577355087 0.577341378 0.577354252
vn -0.577355146 0.577341437 0.577354312
vn -0.577355087 0.577341378 0.577354252
vn -0.577355087 0.577341378 -0.577354252
vn -0.577355146 0.577341437 -0.577354312
vn -0.577355087 0.577341378 -0.577354252
vn 0.577355087 0.577341378 -0.577354252
vn 0.577355087 0.577341378 -0.577354252
vn 0.577355146 0.577341437 -0.577354312
vn 0.577355087 0.577341378 0.577354252
vn 0.577355146 0.577341437 0.577354312
vn 0.577355087 0.577341378 0.577354252
vn 0.577355146 -0.577341437 -0.577354312
vn 0.577355087 -0.577341378 -0.577354252
vn 0.577355087 -0.577341378 -0.577354252
vn -0.577355087 -0.577341378 -0.577354252
vn -0.577355146 -0.577341437 -0.577354312
vn -0.577355087 -0.577341378 -0.577354252
vn -0.577355087 -0.577341378 0.577354252
vn -0.577355087 -0.577341378 0.577354252
vn -0.577355146 -0.577341437 0.577354312
vn 0.577355146 -0.577341437 0.577354312
vn 0.577355087 -0.577341378 0.577354252
vn 0.577355087 -0.577341378 0.577354252
vn 0.577350497 0.577350497 0.577349603
vn 0.577350497 0.577350497 0.577349663
vn 0.577350497 0.577350497 0.577349603
vn 0.577350497 -0.577350497 -0.577349663
vn 0.577350497 -0.577350497 -0.577349603
vn 0.577350497 -0.577350497 -0.577349603
vn -0.577350497 -0.577350497 -0.577349603
vn -0.577350497 -0.577350497 -0.577349663
vn -0.577350497 -0.577350497 -0.577349603
vn -0.577350497 -0.577350497 0.577349603
vn -0.577350497 -0.577350497 0.577349603
vn -0.577350497 -0.577350497 0.577349663
vn 0.577350497 -0.577350497 0.577349663
vn 0.577350497 -0.577350497 0.577349603
vn 0.577350497 -0.577350497 0.577349603
vn 1 0 0
vn 1 0 -0
vn 1 -0 0
vn 1 0 -0
vn 0 -0 1
vn 0 -0 1
vn 0 -0 1
vn 0 0 1
vn -1 0 0
vn -1 0 0
vn -1 0 0
vn -1 0 0
vn 0 0 -1
vn 0 0 -1
vn 0 0 -1
vn -0 0 -1
vn 0 -1 -0
vn 0 -1 0
vn 0 -1 -0
vn -0 -1 0
vn 0 1 0
vn 0 1 0
vn 0 1 0
vn 0 1 0
vn 1 0 0
vn 1 0 -0
vn 1 -0 0
vn 1 0 -0
vn 0 -0 1
vn 0 -0 1
vn 0 -0 1
vn 0 0 1
vn -1 0 0
vn -1 0 0
vn -1 0 0
vn -1 0 0
vn 0 0 -1
vn 0 0 -1
vn 0 0 -1
vn -0 0 -1
vn 0 -1 -0
vn 0 -1 0
vn 0 -1 -0
vn -0 -1 0
vn 0 1 0
vn 0 1 0
vn 0 1 0
vn 0 1 0
vn 1 0 -0
vn 1 -0 0
vn 1 0 -0
vn 1 0 0
vn -1 0 0
vn -1 0 0
vn -1 0 0
vn -1 0 0
vn 0 1 0
vn 0 1 0
vn 0 1 0
vn 0 1 0
vn 0 -0 1
vn 0 -0 1
vn 0 -0 1
vn 0 0 1
vn 0 0 1
vn 0 -0 1
vn 0 -0 1
vn 0 0 1
vn 0 0 -1
vn 0 0 -1
vn 0 0 -1
vn 0 0 -1
vn 0 0 -1
vn 0 0 -1
vn -0 0 -1
vn 0 0 -1
vn -0 -1 0
vn 0 -1 -0
vn 0 -1 0
vn 0 -1 -0
vn 0 -1 -0
vn -0 -1 0
vn 0 -1 -0
vn 0 -1 0
vn -1 0 0
vn -1 0 0
vn -1 0 0
vn -1 0 0
vn 1 -0 0
vn 1 0 -0
vn 1 0 0
vn 1 0 -0
vn 0 -1 0
vn 0 -1 -0
vn -0 -1 0
vn 0 -1 -0
g door
f 3//1 4//2 1//3 2//4
f 7//5 8//6 5//7 6//8
f 11//9 12//10 9//11 10//12
f 15//13 16//14 13//15 14//16
f 11//17 10//18 1//19 4//20
f 7//21 6//22 13//23 16//24
f 6//25 9//26 14//27 13//28
f 16//29 3//30 8//31 7//32
f 12//33 18//34 17//35 9//36
f 20//37 15//38 14//39 19//40
f 23//41 24//42 21//43 22//44
f 27//45 28//46 25//47 26//48
f 23//49 22//50 17//51 18//52
f 20//53 19//54 25//55 28//56
f 19//57 21//58 26//59 25//60
f 28//61 12//62 15//63 20//64
f 24//65 30//66 29//67 21//68
f 32//69 27//70 26//71 31//72
f 35//73 36//74 33//75 34//76
f 39//77 40//78 37//79 38//80
f 35//81 34//82 29//83 30//84
f 32//85 31//86 37//87 40//88
f 31//89 33//90 38//91 37//92
f 40//93 24//94 27//95 32//96
f 36//97 42//98 41//99 33//100
f 44//101 39//102 38//103 43//104
f 47//105 48//106 45//107 46//108
f 51//109 52//110 49//111 50//112
f 47//113 46//114 41//115 42//116
f 44//117 43//118 49//119 52//120
f 43//121 45//122 50//123 49//124
f 52//125 36//126 39//127 44//128
f 48//129 54//130 53//131 45//132
f 56//133 51//134 50//135 55//136
f 59//137 60//138 57//139 58//140
f 63//141 64//142 61//143 62//144
f 59//145 58//146 53//147 54//148
f 56//149 55//150 61//151 64//152
f 55//153 57//154 62//155 61//156
f 64//157 48//158 51//159 56//160
f 2//161 5//162 8//163 3//164
f 59//165 54//166 63//167 60//168
f 63//169 54//170 48//171 64//172
f 53//173 58//174 50//175 45//176
f 50//177 58//178 57//179 55//180
f 47//181 42//182 51//183 48//184
f 51//185 42//186 36//187 52//188
f 41//189 46//190 38//191 33//192
f 38//193 46//194 45//195 43//196
f 35//197 30//198 39//199 36//200
f 39//201 30//202 24//203 40//204
f 29//205 34//206 26//207 21//208
f 26//209 34//210 33//211 31//212
f 23//213 18//214 27//215 24//216
f 27//217 18//218 12//219 28//220
f 17//221 22//222 14//223 9//224
f 14//225 22//226 21//227 19//228
f 11//229 4//230 15//231 12//232
f 15//233 4//234 3//235 16//236
f 1//237 10//238 5//239 2//240
f 5//241 10//242 9//243 6//244
f 66//245 69//246 70//247 65//248
f 67//249 73//250 74//251 66//252
f 68//253 105//254 106//255 67//256
f 65//257 101//258 102//259 68//260
f 71//261 104//262 101//263 70//264
f 72//265 110//266 111//267 71//268
f 69//269 74//270 75//271 72//272
f 76//273 109//274 110//275 75//276
f 73//277 106//278 107//279 76//280
f 78//281 81//282 82//283 77//284
f 79//285 85//286 86//287 78//288
f 80//289 93//290 94//291 79//292
f 77//293 89//294 90//295 80//296
f 83//297 92//298 89//299 82//300
f 84//301 98//302 99//303 83//304
f 81//305 86//306 87//307 84//308
f 88//309 97//310 98//311 87//312
f 85//313 94//314 95//315 88//316
f 91//317 96//318 93//319 90//320
f 92//321 99//322 100//323 91//324
f 96//325 100//326 97//327 95//328
f 103//329 108//330 105//331 102//332
f 104//333 111//334 112//335 103//336
f 108//337 112//338 109//339 107//340
f 70//341 101//342 65//343
f 66//344 74//345 69//346
f 67//347 106//348 73//349
f 82//350 89//351 77//352
f 78//353 86//354 81//355
f 79//356 94//357 85//358
f 80//359 90//360 93//361
f 88//362 95//363 97//364
f 84//365 87//366 98//367
f 83//368 99//369 92//370
f 91//371 100//372 96//373
f 68//374 102//375 105//376
f 76//377 107//378 109//379
f 72//380 75//381 110//382
f 71//383 111//384 104//385
f 103//386 112//387 108//388
f 105//389 108//390 107//391 106//392
f 101//393 104//394 103//395 102//396
f 69//397 72//398 71//399 70//400
f 73//401 76//402 75//403 74//404
f 112//405 111//406 110//407 109//408
f 65//409 68//410 67//411 66//412
f 93//413 96//414 95//415 94//416
f 89//417 92//418 91//419 90//420
f 81//421 84//422 83//423 82//424
f 85//425 88//426 87//427 86//428
f 100//429 99//430 98//431 97//432
f 77//433 80//434 79//435 78//436
g wall
f 113//437 116//438 115//439 114//440
f 117//441 120//442 119//443 118//444
f 114//445 115//446 118//447 119//448
f 119//449 120//450 124//451 123//452 122//453 121//454 113//455 114//456
f 116//457 128//458 127//459 126//460 125//461 117//462 118//463 115//464
f 116//465 113//466 121//467 128//468
f 117//469 125//470 124//471 120//472
f 122//473 127//474 128//475 121//476
f 125//477 126//478 123//479 124//480
f 123//481 126//482 127//483 122//484
