# File exported by Houdini 17.5.229 (www.sidefx.com)
# 209 points
# 640 vertices
# 160 primitives
# Bounds: [-4, 0, -4] to [4, 3, 4]
g 
v -3.79999995 0 0.200000003
v -3.79999995 3 0.200000003
v -3.79999995 3 -0.200000003
v -3.79999995 0 -0.200000003
v -4 3 0.200000003
v -4 0 0.200000003
v -4 0 -0.200000003
v -4 3 -0.200000003
v 0.200000003 0 3.79999995
v 0.200000003 3 3.79999995
v -0.200000003 3 3.79999995
v -0.200000003 0 3.79999995
v 0.200000003 3 4
v 0.200000003 0 4
v -0.200000003 0 4
v -0.200000003 3 4
v 3.79999995 0 -4
v 4 0 -4
v 4 3 -4
v 3.79999995 3 -4
v 4 0 -3.79999995
v 4 3 -3.79999995
v 1.79999995 3 -4
v 1.79999995 0 -4
v 2.20000005 0 -4
v 2.20000005 3 -4
v 0.200000003 3 -4
v -0.200000003 3 -4
v -0.200000003 0 -4
v 0.200000003 0 -4
v -3.79999995 0 -4
v -3.79999995 3 -4
v -4 3 -4
v -4 0 -4
v -4 0 -3.79999995
v -4 3 -3.79999995
v -1.79999995 3 -4
v -2.20000005 3 -4
v -2.20000005 0 -4
v -1.79999995 0 -4
v 4 3 2.20000005
v 4 3 1.79999995
v 4 0 1.79999995
v 4 0 2.20000005
v 4 3 -0.200000003
v 4 0 -0.200000003
v 4 0 0.200000003
v 4 3 0.200000003
v 4 0 3.79999995
v 4 0 4
v 4 3 4
v 4 3 3.79999995
v 3.79999995 0 4
v 3.79999995 3 4
v 4 3 -2.20000005
v 4 0 -2.20000005
v 4 0 -1.79999995
v 4 3 -1.79999995
v -2.20000005 3 4
v -1.79999995 3 4
v -1.79999995 0 4
v -2.20000005 0 4
v -3.79999995 0 4
v -4 0 4
v -4 3 4
v -3.79999995 3 4
v -4 0 3.79999995
v -4 3 3.79999995
v 2.20000005 3 4
v 2.20000005 0 4
v 1.79999995 0 4
v 1.79999995 3 4
v -4 3 -1.79999995
v -4 0 -1.79999995
v -4 0 -2.20000005
v -4 3 -2.20000005
v -4 3 1.79999995
v -4 3 2.20000005
v -4 0 2.20000005
v -4 0 1.79999995
v 3.79999995 3 3.79999995
v 3.79999995 0 3.79999995
v -3.79999995 0 -2.20000005
v -3.79999995 0 -1.79999995
v -3.79999995 0 1.79999995
v -3.79999995 0 2.20000005
v -3.79999995 0 3.79999995
v -2.20000005 0 3.79999995
v -1.79999995 0 3.79999995
v 1.79999995 0 3.79999995
v 2.20000005 0 3.79999995
v -3.79999995 0 -3.79999995
v 3.79999995 0 2.20000005
v 3.79999995 0 1.79999995
v 3.79999995 0 0.200000003
v 3.79999995 0 -0.200000003
v 3.79999995 0 -1.79999995
v 3.79999995 0 -2.20000005
v 3.79999995 0 -3.79999995
v 2.20000005 0 -3.79999995
v 1.79999995 0 -3.79999995
v 0.200000003 0 -3.79999995
v -0.200000003 0 -3.79999995
v -1.79999995 0 -3.79999995
v -2.20000005 0 -3.79999995
v 3.79999995 3 1.79999995
v 3.79999995 3 2.20000005
v 3.79999995 3 -0.200000003
v 3.79999995 3 0.200000003
v 3.79999995 3 -2.20000005
v 3.79999995 3 -1.79999995
v 3.79999995 3 -3.79999995
v 1.79999995 3 -3.79999995
v 2.20000005 3 -3.79999995
v -0.200000003 3 -3.79999995
v 0.200000003 3 -3.79999995
v -2.20000005 3 -3.79999995
v -1.79999995 3 -3.79999995
v -3.79999995 3 -3.79999995
v -3.79999995 3 -1.79999995
v -3.79999995 3 -2.20000005
v -3.79999995 3 2.20000005
v -3.79999995 3 1.79999995
v -3.79999995 3 3.79999995
v -1.79999995 3 3.79999995
v -2.20000005 3 3.79999995
v 2.20000005 3 3.79999995
v 1.79999995 3 3.79999995
v -4 0 -4
v -3 0 -4
v -2 0 -4
v -1 0 -4
v 0 0 -4
v 1 0 -4
v 2 0 -4
v 3 0 -4
v 4 0 -4
v -4 0 -3
v -3 0 -3
v -2 0 -3
v -1 0 -3
v 0 0 -3
v 1 0 -3
v 2 0 -3
v 3 0 -3
v 4 0 -3
v -4 0 -2
v -3 0 -2
v -2 0 -2
v -1 0 -2
v 0 0 -2
v 1 0 -2
v 2 0 -2
v 3 0 -2
v 4 0 -2
v -4 0 -1
v -3 0 -1
v -2 0 -1
v -1 0 -1
v 0 0 -1
v 1 0 -1
v 2 0 -1
v 3 0 -1
v 4 0 -1
v -4 0 0
v -3 0 0
v -2 0 0
v -1 0 0
v 0 0 0
v 1 0 0
v 2 0 0
v 3 0 0
v 4 0 0
v -4 0 1
v -3 0 1
v -2 0 1
v -1 0 1
v 0 0 1
v 1 0 1
v 2 0 1
v 3 0 1
v 4 0 1
v -4 0 2
v -3 0 2
v -2 0 2
v -1 0 2
v 0 0 2
v 1 0 2
v 2 0 2
v 3 0 2
v 4 0 2
v -4 0 3
v -3 0 3
v -2 0 3
v -1 0 3
v 0 0 3
v 1 0 3
v 2 0 3
v 3 0 3
v 4 0 3
v -4 0 4
v -3 0 4
v -2 0 4
v -1 0 4
v 0 0 4
v 1 0 4
v 2 0 4
v 3 0 4
v 4 0 4
vn 1 -0 -0
vn 1 -0 -0
vn 1 0 0
vn 1 -0 -0
vn -0 -0 1
vn -0 -0 1
vn 0 0 1
vn -0 -0 1
vn 0 -0 -1
vn -0 -0 -1
vn -0 0 -1
vn -0 -0 -1
vn -0 1 -0
vn -0 1 -0
vn 0 1 0
vn -0 1 -0
vn -0 -0 -1
vn 0 -0 -1
vn -0 -0 -1
vn -0 0 -1
vn 1 -0 -0
vn 1 -0 -0
vn 1 -0 -0
vn 1 0 0
vn -1 -0 -0
vn -1 -0 0
vn -1 -0 -0
vn -1 0 -0
vn 0 1 0
vn -0 1 -0
vn -0 1 -0
vn -0 1 -0
vn 0 -0 -1
vn -0 -0 -1
vn -0 0 -1
vn -0 -0 -1
vn 1 0 0
vn 1 -0 -0
vn 1 -0 -0
vn 1 -0 -0
vn -0 -0 -1
vn -0 0 -1
vn -0 -0 -1
vn 0 -0 -1
vn -0 0 -1
vn -0 -0 -1
vn 0 -0 -1
vn -0 -0 -1
vn -0 -0 -1
vn 0 -0 -1
vn -0 -0 -1
vn -0 0 -1
vn -1 -0 -0
vn -1 -0 0
vn -1 -0 -0
vn -1 0 -0
vn -0 0 -1
vn -0 -0 -1
vn 0 -0 -1
vn -0 -0 -1
vn 1 -0 -0
vn 1 -0 -0
vn 1 -0 -0
vn 1 0 0
vn 1 0 0
vn 1 -0 -0
vn 1 -0 -0
vn 1 -0 -0
vn 1 -0 -0
vn 1 0 0
vn 1 -0 -0
vn 1 -0 -0
vn -0 -0 1
vn -0 -0 1
vn -0 -0 1
vn 0 0 1
vn 1 0 0
vn 1 -0 -0
vn 1 -0 -0
vn 1 -0 -0
vn -0 -0 1
vn -0 -0 1
vn 0 0 1
vn -0 -0 1
vn -0 -0 1
vn -0 -0 1
vn -0 -0 1
vn 0 0 1
vn 0 0 1
vn -0 -0 1
vn -0 -0 1
vn -0 -0 1
vn -1 -0 -0
vn -1 -0 0
vn -1 -0 -0
vn -1 0 -0
vn -0 -0 1
vn -0 -0 1
vn -0 -0 1
vn 0 0 1
vn -1 -0 0
vn -1 -0 -0
vn -1 0 -0
vn -1 -0 -0
vn -1 -0 -0
vn -1 0 -0
vn -1 -0 -0
vn -1 -0 0
vn -1 -0 -0
vn -1 0 -0
vn -1 -0 -0
vn -1 -0 0
vn -1 -0 -0
vn -1 0 -0
vn -1 -0 -0
vn -1 -0 0
vn -0 0 -1
vn -0 -0 -1
vn 0 -0 -1
vn -0 -0 -1
vn -0 1 -0
vn -0 1 -0
vn -0 1 -0
vn 0 1 0
vn -0 -1 -0
vn 0 -1 -0
vn -0 -1 -0
vn -0 -1 0
vn -0 -1 -0
vn 0 -1 -0
vn -0 -1 -0
vn -0 -1 0
vn -0 -1 -0
vn 0 -1 -0
vn -0 -1 -0
vn -0 -1 0
vn -0 -1 -0
vn 0 -1 -0
vn -0 -1 -0
vn -0 -1 0
vn -0 -1 0
vn -0 -1 -0
vn 0 -1 -0
vn -0 -1 -0
vn -0 -1 0
vn -0 -1 -0
vn 0 -1 -0
vn -0 -1 -0
vn -0 -1 0
vn -0 -1 -0
vn 0 -1 -0
vn -0 -1 -0
vn -0 -1 0
vn -0 -1 -0
vn 0 -1 -0
vn -0 -1 -0
vn -0 -1 -0
vn -0 -1 0
vn -0 -1 -0
vn 0 -1 -0
vn -0 -1 -0
vn -0 -1 0
vn -0 -1 -0
vn 0 -1 -0
vn -0 -1 -0
vn -0 -1 0
vn -0 -1 -0
vn 0 -1 -0
vn -0 -1 -0
vn -0 -1 0
vn -0 -1 -0
vn 0 -1 -0
vn -0 -1 -0
vn -0 -1 0
vn -0 -1 -0
vn 0 -1 -0
vn 0 -1 -0
vn -0 -1 -0
vn -0 -1 0
vn -0 -1 -0
vn 0 -1 -0
vn -0 -1 -0
vn -0 -1 0
vn -0 -1 -0
vn 0 -1 -0
vn -0 -1 -0
vn -0 -1 0
vn -0 -1 -0
vn -1 0 -0
vn -1 -0 -0
vn -1 -0 0
vn -1 -0 -0
vn -0 0 -1
vn -0 -0 -1
vn 0 -0 -1
vn -0 -0 -1
vn 0 0 1
vn -0 -0 1
vn -0 -0 1
vn -0 -0 1
vn 0 1 0
vn -0 1 -0
vn -0 1 -0
vn -0 1 -0
vn -1 0 -0
vn -1 -0 -0
vn -1 -0 0
vn -1 -0 -0
vn -0 0 -1
vn -0 -0 -1
vn 0 -0 -1
vn -0 -0 -1
vn 0 0 1
vn -0 -0 1
vn -0 -0 1
vn -0 -0 1
vn 0 1 0
vn -0 1 -0
vn -0 1 -0
vn -0 1 -0
vn -1 0 -0
vn -1 -0 -0
vn -1 -0 0
vn -1 -0 -0
vn -0 0 -1
vn -0 -0 -1
vn 0 -0 -1
vn -0 -0 -1
vn 0 0 1
vn -0 -0 1
vn -0 -0 1
vn -0 -0 1
vn -0 1 -0
vn -0 1 -0
vn -0 1 -0
vn 0 1 0
vn 0 0 1
vn -0 -0 1
vn -0 -0 1
vn -0 -0 1
vn -1 -0 -0
vn -1 0 -0
vn -1 -0 -0
vn -1 -0 0
vn -0 1 -0
vn -0 1 -0
vn 0 1 0
vn -0 1 -0
vn -0 -0 1
vn 0 0 1
vn -0 -0 1
vn -0 -0 1
vn -1 -0 -0
vn -1 0 -0
vn -1 -0 -0
vn -1 -0 0
vn 1 -0 -0
vn 1 0 0
vn 1 -0 -0
vn 1 -0 -0
vn -0 1 -0
vn -0 1 -0
vn -0 1 -0
vn 0 1 0
vn -0 -0 1
vn 0 0 1
vn -0 -0 1
vn -0 -0 1
vn -1 -0 -0
vn -1 0 -0
vn -1 -0 -0
vn -1 -0 0
vn 1 -0 -0
vn 1 0 0
vn 1 -0 -0
vn 1 -0 -0
vn -0 1 -0
vn -0 1 -0
vn -0 1 -0
vn 0 1 0
vn -0 -0 1
vn 0 0 1
vn -0 -0 1
vn -0 -0 1
vn -1 -0 -0
vn -1 0 -0
vn -1 -0 -0
vn -1 -0 0
vn 1 -0 -0
vn 1 0 0
vn 1 -0 -0
vn 1 -0 -0
vn -0 1 -0
vn -0 1 -0
vn 0 1 0
vn -0 1 -0
vn 1 -0 -0
vn 1 0 0
vn 1 -0 -0
vn 1 -0 -0
vn -0 -0 1
vn -0 -0 1
vn -0 -0 1
vn 0 0 1
vn -0 1 -0
vn -0 1 -0
vn -0 1 -0
vn 0 1 0
vn 1 -0 -0
vn 1 -0 -0
vn 1 0 0
vn 1 -0 -0
vn -0 -0 1
vn -0 -0 1
vn 0 0 1
vn -0 -0 1
vn 0 -0 -1
vn -0 -0 -1
vn -0 0 -1
vn -0 -0 -1
vn -0 1 -0
vn -0 1 -0
vn 0 1 0
vn -0 1 -0
vn 1 -0 -0
vn 1 -0 -0
vn 1 0 0
vn 1 -0 -0
vn -0 -0 1
vn -0 -0 1
vn 0 0 1
vn -0 -0 1
vn 0 -0 -1
vn -0 -0 -1
vn -0 0 -1
vn -0 -0 -1
vn -0 1 -0
vn 0 1 0
vn -0 1 -0
vn -0 1 -0
vn 0 -0 -1
vn -0 -0 -1
vn -0 0 -1
vn -0 -0 -1
vn 1 -0 -0
vn 1 -0 -0
vn 1 -0 -0
vn 1 0 0
vn 0 1 0
vn -0 1 -0
vn -0 1 -0
vn -0 1 -0
vn -0 -0 -1
vn 0 -0 -1
vn -0 -0 -1
vn -0 0 -1
vn 1 -0 -0
vn 1 -0 -0
vn 1 -0 -0
vn 1 0 0
vn -1 -0 -0
vn -1 0 -0
vn -1 -0 -0
vn -1 -0 0
vn 0 1 0
vn -0 1 -0
vn -0 1 -0
vn -0 1 -0
vn -0 -0 -1
vn 0 -0 -1
vn -0 -0 -1
vn -0 0 -1
vn 1 -0 -0
vn 1 -0 -0
vn 1 -0 -0
vn 1 0 0
vn -1 -0 -0
vn -1 -0 0
vn -1 -0 -0
vn -1 0 -0
vn 0 1 0
vn -0 1 -0
vn -0 1 -0
vn -0 1 -0
vn -0 1 -0
vn 0 1 0
vn 0 1 0
vn -0 1 -0
vn -0 1 -0
vn 0 1 0
vn 0 1 0
vn -0 1 -0
vn -0 1 -0
vn 0 1 0
vn 0 1 0
vn -0 1 -0
vn -0 1 -0
vn 0 1 0
vn 0 1 0
vn -0 1 -0
vn -0 1 -0
vn 0 1 0
vn 0 1 0
vn -0 1 -0
vn -0 1 -0
vn 0 1 0
vn 0 1 0
vn -0 1 -0
vn -0 1 -0
vn 0 1 0
vn 0 1 0
vn -0 1 -0
vn -0 1 -0
vn 0 1 0
vn -0 1 -0
vn -0 1 -0
vn 0 1 0
vn 0 1 0
vn 0 1 0
vn 0 1 0
vn 0 1 0
vn 0 1 0
vn 0 1 0
vn 0 1 0
vn 0 1 0
vn 0 1 0
vn 0 1 0
vn 0 1 0
vn 0 1 0
vn 0 1 0
vn 0 1 0
vn 0 1 0
vn 0 1 0
vn 0 1 0
vn 0 1 0
vn 0 1 0
vn 0 1 0
vn 0 1 0
vn 0 1 0
vn 0 1 0
vn 0 1 0
vn 0 1 0
vn 0 1 0
vn 0 1 0
vn 0 1 0
vn 0 1 0
vn -0 1 -0
vn -0 1 -0
vn 0 1 0
vn 0 1 0
vn 0 1 0
vn 0 1 0
vn 0 1 0
vn 0 1 0
vn 0 1 0
vn 0 1 0
vn 0 1 0
vn 0 1 0
vn 0 1 0
vn 0 1 0
vn 0 1 0
vn 0 1 0
vn 0 1 0
vn 0 1 0
vn 0 1 0
vn 0 1 0
vn 0 1 0
vn 0 1 0
vn 0 1 0
vn 0 1 0
vn 0 1 0
vn 0 1 0
vn 0 1 0
vn 0 1 0
vn 0 1 0
vn 0 1 0
vn 0 1 0
vn 0 1 0
vn -0 1 -0
vn -0 1 -0
vn 0 1 0
vn 0 1 0
vn 0 1 0
vn 0 1 0
vn 0 1 0
vn 0 1 0
vn 0 1 0
vn 0 1 0
vn 0 1 0
vn 0 1 0
vn 0 1 0
vn 0 1 0
vn 0 1 0
vn 0 1 0
vn 0 1 0
vn 0 1 0
vn 0 1 0
vn 0 1 0
vn 0 1 0
vn 0 1 0
vn 0 1 0
vn 0 1 0
vn 0 1 0
vn 0 1 0
vn 0 1 0
vn 0 1 0
vn 0 1 0
vn 0 1 0
vn 0 1 0
vn 0 1 0
vn -0 1 -0
vn -0 1 -0
vn 0 1 0
vn 0 1 0
vn 0 1 0
vn 0 1 0
vn 0 1 0
vn 0 1 0
vn 0 1 0
vn 0 1 0
vn 0 1 0
vn 0 1 0
vn 0 1 0
vn 0 1 0
vn 0 1 0
vn 0 1 0
vn 0 1 0
vn 0 1 0
vn 0 1 0
vn 0 1 0
vn 0 1 0
vn 0 1 0
vn 0 1 0
vn 0 1 0
vn 0 1 0
vn 0 1 0
vn 0 1 0
vn 0 1 0
vn 0 1 0
vn 0 1 0
vn 0 1 0
vn 0 1 0
vn -0 1 -0
vn -0 1 -0
vn 0 1 0
vn 0 1 0
vn 0 1 0
vn 0 1 0
vn 0 1 0
vn 0 1 0
vn 0 1 0
vn 0 1 0
vn 0 1 0
vn 0 1 0
vn 0 1 0
vn 0 1 0
vn 0 1 0
vn 0 1 0
vn 0 1 0
vn 0 1 0
vn 0 1 0
vn 0 1 0
vn 0 1 0
vn 0 1 0
vn 0 1 0
vn 0 1 0
vn 0 1 0
vn 0 1 0
vn 0 1 0
vn 0 1 0
vn 0 1 0
vn 0 1 0
vn 0 1 0
vn 0 1 0
vn -0 1 -0
vn -0 1 -0
vn 0 1 0
vn 0 1 0
vn 0 1 0
vn 0 1 0
vn 0 1 0
vn 0 1 0
vn 0 1 0
vn 0 1 0
vn 0 1 0
vn 0 1 0
vn 0 1 0
vn 0 1 0
vn 0 1 0
vn 0 1 0
vn 0 1 0
vn 0 1 0
vn 0 1 0
vn 0 1 0
vn 0 1 0
vn 0 1 0
vn 0 1 0
vn 0 1 0
vn 0 1 0
vn 0 1 0
vn 0 1 0
vn 0 1 0
vn 0 1 0
vn 0 1 0
vn 0 1 0
vn 0 1 0
vn -0 1 -0
vn -0 1 -0
vn 0 1 0
vn 0 1 0
vn 0 1 0
vn 0 1 0
vn 0 1 0
vn 0 1 0
vn 0 1 0
vn 0 1 0
vn 0 1 0
vn 0 1 0
vn 0 1 0
vn 0 1 0
vn 0 1 0
vn 0 1 0
vn 0 1 0
vn 0 1 0
vn 0 1 0
vn 0 1 0
vn 0 1 0
vn 0 1 0
vn 0 1 0
vn 0 1 0
vn 0 1 0
vn 0 1 0
vn 0 1 0
vn 0 1 0
vn 0 1 0
vn 0 1 0
vn 0 1 0
vn 0 1 0
vn -0 1 -0
vn -0 1 -0
g 
f 1//1 4//2 3//3 2//4
f 5//5 6//6 1//7 2//8
f 7//9 8//10 3//11 4//12
f 3//13 8//14 5//15 2//16
f 9//17 12//18 11//19 10//20
f 13//21 14//22 9//23 10//24
f 15//25 16//26 11//27 12//28
f 16//29 13//30 10//31 11//32
f 17//33 20//34 19//35 18//36
f 19//37 22//38 21//39 18//40
f 23//41 26//42 25//43 24//44
f 27//45 30//46 29//47 28//48
f 31//49 34//50 33//51 32//52
f 35//53 36//54 33//55 34//56
f 37//57 40//58 39//59 38//60
f 41//61 44//62 43//63 42//64
f 45//65 48//66 47//67 46//68
f 49//69 52//70 51//71 50//72
f 51//73 54//74 53//75 50//76
f 55//77 58//78 57//79 56//80
f 59//81 62//82 61//83 60//84
f 13//85 16//86 15//87 14//88
f 63//89 66//90 65//91 64//92
f 64//93 65//94 68//95 67//96
f 69//97 72//98 71//99 70//100
f 73//101 76//102 75//103 74//104
f 8//105 7//106 6//107 5//108
f 77//109 80//110 79//111 78//112
f 81//113 82//114 53//115 54//116
f 52//117 49//118 82//119 81//120
f 51//121 52//122 81//123 54//124
f 83//125 84//126 74//127 75//128
f 4//129 1//130 6//131 7//132
f 85//133 86//134 79//135 80//136
f 87//137 63//138 64//139 67//140
f 88//141 89//142 61//143 62//144
f 12//145 9//146 14//147 15//148
f 90//149 91//150 70//151 71//152
f 82//153 49//154 50//155 53//156
f 35//157 34//158 31//159 92//160
f 93//161 94//162 43//163 44//164
f 95//165 96//166 46//167 47//168
f 97//169 98//170 56//171 57//172
f 99//173 17//174 18//175 21//176
f 100//177 101//178 24//179 25//180
f 102//181 103//182 29//183 30//184
f 104//185 105//186 39//187 40//188
f 94//189 93//190 107//191 106//192
f 42//193 43//194 94//195 106//196
f 44//197 41//198 107//199 93//200
f 107//201 41//202 42//203 106//204
f 96//205 95//206 109//207 108//208
f 45//209 46//210 96//211 108//212
f 47//213 48//214 109//215 95//216
f 109//217 48//218 45//219 108//220
f 98//221 97//222 111//223 110//224
f 55//225 56//226 98//227 110//228
f 57//229 58//230 111//231 97//232
f 58//233 55//234 110//235 111//236
f 21//237 22//238 112//239 99//240
f 20//241 17//242 99//243 112//244
f 19//245 20//246 112//247 22//248
f 101//249 100//250 114//251 113//252
f 23//253 24//254 101//255 113//256
f 25//257 26//258 114//259 100//260
f 114//261 26//262 23//263 113//264
f 103//265 102//266 116//267 115//268
f 28//269 29//270 103//271 115//272
f 30//273 27//274 116//275 102//276
f 116//277 27//278 28//279 115//280
f 105//281 104//282 118//283 117//284
f 38//285 39//286 105//287 117//288
f 40//289 37//290 118//291 104//292
f 37//293 38//294 117//295 118//296
f 31//297 32//298 119//299 92//300
f 119//301 36//302 35//303 92//304
f 119//305 32//306 33//307 36//308
f 84//309 83//310 121//311 120//312
f 73//313 74//314 84//315 120//316
f 75//317 76//318 121//319 83//320
f 121//321 76//322 73//323 120//324
f 86//325 85//326 123//327 122//328
f 78//329 79//330 86//331 122//332
f 80//333 77//334 123//335 85//336
f 77//337 78//338 122//339 123//340
f 67//341 68//342 124//343 87//344
f 66//345 63//346 87//347 124//348
f 65//349 66//350 124//351 68//352
f 89//353 88//354 126//355 125//356
f 60//357 61//358 89//359 125//360
f 126//361 88//362 62//363 59//364
f 59//365 60//366 125//367 126//368
f 91//369 90//370 128//371 127//372
f 69//373 70//374 91//375 127//376
f 71//377 72//378 128//379 90//380
f 72//381 69//382 127//383 128//384
f 129//385 138//386 139//387 130//388
f 130//389 139//390 140//391 131//392
f 131//393 140//394 141//395 132//396
f 132//397 141//398 142//399 133//400
f 133//401 142//402 143//403 134//404
f 134//405 143//406 144//407 135//408
f 135//409 144//410 145//411 136//412
f 136//413 145//414 146//415 137//416
f 138//417 147//418 148//419 139//420
f 139//421 148//422 149//423 140//424
f 140//425 149//426 150//427 141//428
f 141//429 150//430 151//431 142//432
f 142//433 151//434 152//435 143//436
f 143//437 152//438 153//439 144//440
f 144//441 153//442 154//443 145//444
f 145//445 154//446 155//447 146//448
f 147//449 156//450 157//451 148//452
f 148//453 157//454 158//455 149//456
f 149//457 158//458 159//459 150//460
f 150//461 159//462 160//463 151//464
f 151//465 160//466 161//467 152//468
f 152//469 161//470 162//471 153//472
f 153//473 162//474 163//475 154//476
f 154//477 163//478 164//479 155//480
f 156//481 165//482 166//483 157//484
f 157//485 166//486 167//487 158//488
f 158//489 167//490 168//491 159//492
f 159//493 168//494 169//495 160//496
f 160//497 169//498 170//499 161//500
f 161//501 170//502 171//503 162//504
f 162//505 171//506 172//507 163//508
f 163//509 172//510 173//511 164//512
f 165//513 174//514 175//515 166//516
f 166//517 175//518 176//519 167//520
f 167//521 176//522 177//523 168//524
f 168//525 177//526 178//527 169//528
f 169//529 178//530 179//531 170//532
f 170//533 179//534 180//535 171//536
f 171//537 180//538 181//539 172//540
f 172//541 181//542 182//543 173//544
f 174//545 183//546 184//547 175//548
f 175//549 184//550 185//551 176//552
f 176//553 185//554 186//555 177//556
f 177//557 186//558 187//559 178//560
f 178//561 187//562 188//563 179//564
f 179//565 188//566 189//567 180//568
f 180//569 189//570 190//571 181//572
f 181//573 190//574 191//575 182//576
f 183//577 192//578 193//579 184//580
f 184//581 193//582 194//583 185//584
f 185//585 194//586 195//587 186//588
f 186//589 195//590 196//591 187//592
f 187//593 196//594 197//595 188//596
f 188//597 197//598 198//599 189//600
f 189//601 198//602 199//603 190//604
f 190//605 199//606 200//607 191//608
f 192//609 201//610 202//611 193//612
f 193//613 202//614 203//615 194//616
f 194//617 203//618 204//619 195//620
f 195//621 204//622 205//623 196//624
f 196//625 205//626 206//627 197//628
f 197//629 206//630 207//631 198//632
f 198//633 207//634 208//635 199//636
f 199//637 208//638 209//639 200//640
