# File exported by Houdini 17.5.229 (www.sidefx.com)
# 185 points
# 472 vertices
# 118 primitives
# Bounds: [-3.00000048, 0, -3.00000048] to [3, 3, 3]
g 
v -2.79999995 0 1.20000052
v -2.79999995 3 1.20000052
v -2.79999995 3 0.800000489
v -2.79999995 0 0.800000489
v -3 3 1.20000052
v -3 0 1.20000052
v -3 0 0.800000489
v -3 3 0.800000489
v 1.20000052 0 2.79999995
v 1.20000052 3 2.79999995
v 0.800000489 3 2.79999995
v 0.800000489 0 2.79999995
v 1.20000052 3 3
v 1.20000052 0 3
v 0.800000489 0 3
v 0.800000489 3 3
v 1.19999981 3 -3
v 0.799999774 3 -3
v 0.799999774 0 -3
v 1.19999981 0 -3
v -0.800000489 3 -3
v -1.20000052 3 -3
v -1.20000052 0 -3
v -0.800000489 0 -3
v 3 3 -0.800000012
v 3 3 -1.20000005
v 3 0 -1.20000005
v 3 0 -0.800000012
v 3 3 1.20000005
v 3 3 0.800000012
v 3 0 0.800000012
v 3 0 1.20000005
v 3 0 -3
v 3 3 -3
v 2.79999995 3 -3
v 2.79999995 0 -3
v 3 3 -2.79999995
v 3 0 -2.79999995
v -0.800000489 0 3
v -1.20000052 0 3
v -1.20000052 3 3
v -0.800000489 3 3
v 3 3 3
v 3 3 2.79999995
v 3 0 2.79999995
v 3 0 3
v 2.79999995 3 3
v 2.79999995 0 3
v -3 3 -1.20000052
v -3 3 -0.800000489
v -3 0 -0.800000489
v -3 0 -1.20000052
v -2.79999995 3 -3
v -3 3 -3
v -3 0 -3
v -2.79999995 0 -3
v -3 3 -2.79999995
v -3 0 -2.79999995
v -3 3 3
v -2.79999995 3 3
v -2.79999995 0 3
v -3 0 3
v -3 3 2.79999995
v -3 0 2.79999995
v 2.79999995 3 2.79999995
v 2.79999995 0 2.79999995
v -2.79999995 0 -1.20000052
v -2.79999995 0 -0.800000489
v -2.79999995 0 2.79999995
v -1.20000052 0 2.79999995
v -0.800000489 0 2.79999995
v 2.79999995 0 1.20000005
v 2.79999995 0 0.800000012
v 2.79999995 0 -0.800000012
v 2.79999995 0 -1.20000005
v 2.79999995 0 -2.79999995
v 1.19999981 0 -2.79999995
v 0.799999774 0 -2.79999995
v -0.800000489 0 -2.79999995
v -1.20000052 0 -2.79999995
v -2.79999995 0 -2.79999995
v 2.79999995 3 0.800000012
v 2.79999995 3 1.20000005
v 2.79999995 3 -1.20000005
v 2.79999995 3 -0.800000012
v 2.79999995 3 -2.79999995
v 0.799999774 3 -2.79999995
v 1.19999981 3 -2.79999995
v -1.20000052 3 -2.79999995
v -0.800000489 3 -2.79999995
v -2.79999995 3 -2.79999995
v -2.79999995 3 -0.800000489
v -2.79999995 3 -1.20000052
v -2.79999995 3 2.79999995
v -0.800000489 3 2.79999995
v -1.20000052 3 2.79999995
v -3 0 -3
v -2 0 -3
v -1 0 -3
v 0 0 -3
v 1 0 -3
v 2 0 -3
v 3 0 -3
v -3 0 -2
v -2 0 -2
v -1 0 -2
v 0 0 -2
v 1 0 -2
v 2 0 -2
v 3 0 -2
v -3 0 -1
v -2 0 -1
v -1 0 -1
v 0 0 -1
v 1 0 -1
v 2 0 -1
v 3 0 -1
v -3 0 0
v -2 0 0
v -1 0 0
v 0 0 0
v 1 0 0
v 2 0 0
v 3 0 0
v -3 0 1
v -2 0 1
v -1 0 1
v 0 0 1
v 1 0 1
v 2 0 1
v 3 0 1
v -3 0 2
v -2 0 2
v -1 0 2
v 0 0 2
v 1 0 2
v 2 0 2
v 3 0 2
v -3 0 3
v -2 0 3
v -1 0 3
v 0 0 3
v 1 0 3
v 2 0 3
v 3 0 3
v 3 0 2.9000001
v 1 0 2.9000001
v 3 3 2.9000001
v 1 3 2.9000001
v 2.9000001 0 1
v 2.9000001 0 3
v 2.9000001 3 1
v 2.9000001 3 3
v 2.9000001 0 -1
v 2.9000001 0 1
v 2.9000001 3 -1
v 2.9000001 3 1
v 0.999999762 0 -2.9000001
v 2.99999976 0 -2.9000001
v 0.999999762 3 -2.9000001
v 2.99999976 3 -2.9000001
v -1.00000048 0 -2.9000001
v 0.999999523 0 -2.9000001
v -1.00000048 3 -2.9000001
v 0.999999523 3 -2.9000001
v -3 0 -2.9000001
v -1 0 -2.9000001
v -3 3 -2.9000001
v -1 3 -2.9000001
v -2.9000001 0 -1.00000048
v -2.9000001 0 -3.00000048
v -2.9000001 3 -1.00000048
v -2.9000001 3 -3.00000048
v -2.9000001 0 1.00000048
v -2.9000001 0 -0.999999523
v -2.9000001 3 1.00000048
v -2.9000001 3 -0.999999523
v -1.00000048 0 2.9000001
v -3.00000048 0 2.9000001
v -1.00000048 3 2.9000001
v -3.00000048 3 2.9000001
v 1.00000048 0 2.9000001
v -0.999999523 0 2.9000001
v 1.00000048 3 2.9000001
v -0.999999523 3 2.9000001
vn 1 -0 -0
vn 1 -0 -0
vn 1 0 0
vn 1 -0 -0
vn -0 -0 1
vn -0 -0 1
vn 0 0 1
vn -0 -0 1
vn 0 -0 -1
vn -0 -0 -1
vn -0 0 -1
vn -0 -0 -1
vn -0 1 -0
vn -0 1 -0
vn 0 1 0
vn -0 1 -0
vn -0 -0 -1
vn 0 -0 -1
vn -0 -0 -1
vn -0 0 -1
vn 1 -0 -0
vn 1 -0 -0
vn 1 -0 -0
vn 1 0 0
vn -1 -0 -0
vn -1 -0 0
vn -1 -0 -0
vn -1 0 -0
vn 0 1 0
vn -0 1 -0
vn -0 1 -0
vn -0 1 -0
vn -0 0 -1
vn -0 -0 -1
vn 0 -0 -1
vn -0 -0 -1
vn -0 0 -1
vn -0 -0 -1
vn 0 -0 -1
vn -0 -0 -1
vn 1 -0 -0
vn 1 -0 -0
vn 1 -0 -0
vn 1 0 0
vn 1 -0 -0
vn 1 -0 -0
vn 1 -0 -0
vn 1 0 0
vn -0 -0 -1
vn 0 -0 -1
vn -0 -0 -1
vn -0 0 -1
vn 1 -0 -0
vn 1 -0 -0
vn 1 -0 -0
vn 1 0 0
vn 0 0 1
vn -0 -0 1
vn -0 -0 1
vn -0 -0 1
vn -0 -0 1
vn -0 -0 1
vn 0 0 1
vn -0 -0 1
vn 1 -0 -0
vn 1 -0 -0
vn 1 -0 -0
vn 1 0 0
vn -0 -0 1
vn -0 -0 1
vn 0 0 1
vn -0 -0 1
vn -1 -0 -0
vn -1 0 -0
vn -1 -0 -0
vn -1 -0 0
vn -0 0 -1
vn -0 -0 -1
vn 0 -0 -1
vn -0 -0 -1
vn -1 0 -0
vn -1 -0 -0
vn -1 -0 0
vn -1 -0 -0
vn -1 -0 -0
vn -1 -0 0
vn -1 -0 -0
vn -1 0 -0
vn -0 -0 1
vn -0 -0 1
vn 0 0 1
vn -0 -0 1
vn -1 -0 -0
vn -1 0 -0
vn -1 -0 -0
vn -1 -0 0
vn -1 -0 -0
vn -1 0 -0
vn -1 -0 -0
vn -1 -0 0
vn -0 0 -1
vn -0 -0 -1
vn 0 -0 -1
vn -0 -0 -1
vn -0 1 -0
vn -0 1 -0
vn -0 1 -0
vn 0 1 0
vn -0 -1 -0
vn 0 -1 -0
vn -0 -1 -0
vn -0 -1 0
vn -0 -1 -0
vn 0 -1 -0
vn -0 -1 -0
vn -0 -1 0
vn -0 -1 -0
vn -0 -1 0
vn -0 -1 -0
vn 0 -1 -0
vn -0 -1 0
vn -0 -1 -0
vn 0 -1 -0
vn -0 -1 -0
vn -0 -1 0
vn -0 -1 -0
vn 0 -1 -0
vn -0 -1 -0
vn 0 -1 -0
vn -0 -1 -0
vn -0 -1 0
vn -0 -1 -0
vn -0 -1 -0
vn -0 -1 0
vn -0 -1 -0
vn 0 -1 -0
vn -0 -1 -0
vn -0 -1 0
vn -0 -1 -0
vn 0 -1 -0
vn -0 -1 -0
vn 0 -1 -0
vn -0 -1 -0
vn -0 -1 0
vn 0 -1 -0
vn -0 -1 -0
vn -0 -1 0
vn -0 -1 -0
vn 0 -1 -0
vn -0 -1 -0
vn -0 -1 0
vn -0 -1 -0
vn -0 -1 0
vn -0 -1 -0
vn 0 -1 -0
vn -0 -1 -0
vn -1 0 -0
vn -1 -0 -0
vn -1 -0 0
vn -1 -0 -0
vn -0 0 -1
vn -0 -0 -1
vn 0 -0 -1
vn -0 -0 -1
vn 0 0 1
vn -0 -0 1
vn -0 -0 1
vn -0 -0 1
vn 0 1 0
vn -0 1 -0
vn -0 1 -0
vn -0 1 -0
vn -1 0 -0
vn -1 -0 -0
vn -1 -0 0
vn -1 -0 -0
vn -0 0 -1
vn -0 -0 -1
vn 0 -0 -1
vn -0 -0 -1
vn 0 0 1
vn -0 -0 1
vn -0 -0 1
vn -0 -0 1
vn -0 1 -0
vn -0 1 -0
vn -0 1 -0
vn 0 1 0
vn 0 0 1
vn -0 -0 1
vn -0 -0 1
vn -0 -0 1
vn -1 -0 -0
vn -1 0 -0
vn -1 -0 -0
vn -1 -0 0
vn -0 1 -0
vn -0 1 -0
vn 0 1 0
vn -0 1 -0
vn -0 -0 1
vn 0 0 1
vn -0 -0 1
vn -0 -0 1
vn -1 -0 -0
vn -1 0 -0
vn -1 -0 -0
vn -1 -0 0
vn 1 -0 -0
vn 1 0 0
vn 1 -0 -0
vn 1 -0 -0
vn -0 1 -0
vn -0 1 -0
vn -0 1 -0
vn 0 1 0
vn -0 -0 1
vn 0 0 1
vn -0 -0 1
vn -0 -0 1
vn -1 -0 -0
vn -1 0 -0
vn -1 -0 -0
vn -1 -0 0
vn 1 -0 -0
vn 1 0 0
vn 1 -0 -0
vn 1 -0 -0
vn -0 1 -0
vn -0 1 -0
vn -0 1 -0
vn 0 1 0
vn 1 -0 -0
vn 1 0 0
vn 1 -0 -0
vn 1 -0 -0
vn -0 -0 1
vn -0 -0 1
vn -0 -0 1
vn 0 0 1
vn -0 1 -0
vn -0 1 -0
vn -0 1 -0
vn 0 1 0
vn 1 -0 -0
vn 1 -0 -0
vn 1 0 0
vn 1 -0 -0
vn -0 -0 1
vn -0 -0 1
vn 0 0 1
vn -0 -0 1
vn 0 -0 -1
vn -0 -0 -1
vn -0 0 -1
vn -0 -0 -1
vn -0 1 -0
vn -0 1 -0
vn 0 1 0
vn -0 1 -0
vn 0 -0 -1
vn -0 -0 -1
vn -0 0 -1
vn -0 -0 -1
vn 1 -0 -0
vn 1 -0 -0
vn 1 -0 -0
vn 1 0 0
vn 0 1 0
vn -0 1 -0
vn -0 1 -0
vn -0 1 -0
vn -0 -0 -1
vn 0 -0 -1
vn -0 -0 -1
vn -0 0 -1
vn 1 -0 -0
vn 1 -0 -0
vn 1 -0 -0
vn 1 0 0
vn -1 -0 -0
vn -1 0 -0
vn -1 -0 -0
vn -1 -0 0
vn 0 1 0
vn -0 1 -0
vn -0 1 -0
vn -0 1 -0
vn -0 1 -0
vn 0 1 0
vn 0 1 0
vn -0 1 -0
vn -0 1 -0
vn 0 1 0
vn 0 1 0
vn -0 1 -0
vn -0 1 -0
vn 0 1 0
vn 0 1 0
vn -0 1 -0
vn -0 1 -0
vn 0 1 0
vn 0 1 0
vn -0 1 -0
vn -0 1 -0
vn 0 1 0
vn 0 1 0
vn -0 1 -0
vn -0 1 -0
vn 0 1 0
vn -0 1 -0
vn -0 1 -0
vn 0 1 0
vn 0 1 0
vn 0 1 0
vn 0 1 0
vn 0 1 0
vn 0 1 0
vn 0 1 0
vn 0 1 0
vn 0 1 0
vn 0 1 0
vn 0 1 0
vn 0 1 0
vn 0 1 0
vn 0 1 0
vn 0 1 0
vn 0 1 0
vn 0 1 0
vn 0 1 0
vn 0 1 0
vn 0 1 0
vn 0 1 0
vn 0 1 0
vn -0 1 -0
vn -0 1 -0
vn 0 1 0
vn 0 1 0
vn 0 1 0
vn 0 1 0
vn 0 1 0
vn 0 1 0
vn 0 1 0
vn 0 1 0
vn 0 1 0
vn 0 1 0
vn 0 1 0
vn 0 1 0
vn 0 1 0
vn 0 1 0
vn 0 1 0
vn 0 1 0
vn 0 1 0
vn 0 1 0
vn 0 1 0
vn 0 1 0
vn 0 1 0
vn 0 1 0
vn -0 1 -0
vn -0 1 -0
vn 0 1 0
vn 0 1 0
vn 0 1 0
vn 0 1 0
vn 0 1 0
vn 0 1 0
vn 0 1 0
vn 0 1 0
vn 0 1 0
vn 0 1 0
vn 0 1 0
vn 0 1 0
vn 0 1 0
vn 0 1 0
vn 0 1 0
vn 0 1 0
vn 0 1 0
vn 0 1 0
vn 0 1 0
vn 0 1 0
vn 0 1 0
vn 0 1 0
vn -0 1 -0
vn -0 1 -0
vn 0 1 0
vn 0 1 0
vn 0 1 0
vn 0 1 0
vn 0 1 0
vn 0 1 0
vn 0 1 0
vn 0 1 0
vn 0 1 0
vn 0 1 0
vn 0 1 0
vn 0 1 0
vn 0 1 0
vn 0 1 0
vn 0 1 0
vn 0 1 0
vn 0 1 0
vn 0 1 0
vn 0 1 0
vn 0 1 0
vn 0 1 0
vn 0 1 0
vn -0 1 -0
vn -0 1 -0
vn 0 1 0
vn 0 1 0
vn 0 1 0
vn 0 1 0
vn 0 1 0
vn 0 1 0
vn 0 1 0
vn 0 1 0
vn 0 1 0
vn 0 1 0
vn 0 1 0
vn 0 1 0
vn 0 1 0
vn 0 1 0
vn 0 1 0
vn 0 1 0
vn 0 1 0
vn 0 1 0
vn 0 1 0
vn 0 1 0
vn 0 1 0
vn 0 1 0
vn -0 1 -0
vn -0 1 -0
vn -0 -0 -1
vn 0 -0 -1
vn -0 -0 -1
vn -0 0 -1
vn -1 0 -0
vn -1 -0 -0
vn -1 -0 0
vn -1 -0 -0
vn -1 0 -0
vn -1 -0 -0
vn -1 -0 0
vn -1 -0 -0
vn -0 -0 1
vn 0 0 1
vn -0 -0 1
vn -0 -0 1
vn -0 -0 1
vn 0 0 1
vn -0 -0 1
vn -0 -0 1
vn -0 -0 1
vn 0 0 1
vn -0 -0 1
vn -0 -0 1
vn 1 -0 -0
vn 1 -0 -0
vn 1 0 0
vn 1 -0 -0
vn 1 -0 -0
vn 1 -0 -0
vn 1 0 0
vn 1 -0 -0
vn -0 -0 -1
vn 0 -0 -1
vn -0 -0 -1
vn -0 0 -1
vn -0 -0 -1
vn 0 -0 -1
vn -0 -0 -1
vn -0 0 -1
g 
f 1//1 4//2 3//3 2//4
f 5//5 6//6 1//7 2//8
f 7//9 8//10 3//11 4//12
f 3//13 8//14 5//15 2//16
f 9//17 12//18 11//19 10//20
f 13//21 14//22 9//23 10//24
f 15//25 16//26 11//27 12//28
f 16//29 13//30 10//31 11//32
f 17//33 20//34 19//35 18//36
f 21//37 24//38 23//39 22//40
f 25//41 28//42 27//43 26//44
f 29//45 32//46 31//47 30//48
f 33//49 36//50 35//51 34//52
f 37//53 38//54 33//55 34//56
f 39//57 42//58 41//59 40//60
f 16//61 15//62 14//63 13//64
f 43//65 46//66 45//67 44//68
f 47//69 48//70 46//71 43//72
f 49//73 52//74 51//75 50//76
f 53//77 56//78 55//79 54//80
f 55//81 58//82 57//83 54//84
f 6//85 5//86 8//87 7//88
f 59//89 62//90 61//91 60//92
f 63//93 64//94 62//95 59//96
f 65//97 66//98 48//99 47//100
f 44//101 45//102 66//103 65//104
f 43//105 44//106 65//107 47//108
f 67//109 68//110 51//111 52//112
f 4//113 1//114 6//115 7//116
f 62//117 64//118 69//119 61//120
f 70//121 71//122 39//123 40//124
f 12//125 9//126 14//127 15//128
f 46//129 48//130 66//131 45//132
f 72//133 73//134 31//135 32//136
f 74//137 75//138 27//139 28//140
f 33//141 38//142 76//143 36//144
f 77//145 78//146 19//147 20//148
f 79//149 80//150 23//151 24//152
f 55//153 56//154 81//155 58//156
f 73//157 72//158 83//159 82//160
f 30//161 31//162 73//163 82//164
f 32//165 29//166 83//167 72//168
f 83//169 29//170 30//171 82//172
f 75//173 74//174 85//175 84//176
f 26//177 27//178 75//179 84//180
f 28//181 25//182 85//183 74//184
f 25//185 26//186 84//187 85//188
f 38//189 37//190 86//191 76//192
f 35//193 36//194 76//195 86//196
f 34//197 35//198 86//199 37//200
f 78//201 77//202 88//203 87//204
f 18//205 19//206 78//207 87//208
f 20//209 17//210 88//211 77//212
f 88//213 17//214 18//215 87//216
f 80//217 79//218 90//219 89//220
f 22//221 23//222 80//223 89//224
f 24//225 21//226 90//227 79//228
f 90//229 21//230 22//231 89//232
f 56//233 53//234 91//235 81//236
f 91//237 57//238 58//239 81//240
f 91//241 53//242 54//243 57//244
f 68//245 67//246 93//247 92//248
f 50//249 51//250 68//251 92//252
f 52//253 49//254 93//255 67//256
f 93//257 49//258 50//259 92//260
f 64//261 63//262 94//263 69//264
f 60//265 61//266 69//267 94//268
f 59//269 60//270 94//271 63//272
f 71//273 70//274 96//275 95//276
f 42//277 39//278 71//279 95//280
f 96//281 70//282 40//283 41//284
f 41//285 42//286 95//287 96//288
f 97//289 104//290 105//291 98//292
f 98//293 105//294 106//295 99//296
f 99//297 106//298 107//299 100//300
f 100//301 107//302 108//303 101//304
f 101//305 108//306 109//307 102//308
f 102//309 109//310 110//311 103//312
f 104//313 111//314 112//315 105//316
f 105//317 112//318 113//319 106//320
f 106//321 113//322 114//323 107//324
f 107//325 114//326 115//327 108//328
f 108//329 115//330 116//331 109//332
f 109//333 116//334 117//335 110//336
f 111//337 118//338 119//339 112//340
f 112//341 119//342 120//343 113//344
f 113//345 120//346 121//347 114//348
f 114//349 121//350 122//351 115//352
f 115//353 122//354 123//355 116//356
f 116//357 123//358 124//359 117//360
f 118//361 125//362 126//363 119//364
f 119//365 126//366 127//367 120//368
f 120//369 127//370 128//371 121//372
f 121//373 128//374 129//375 122//376
f 122//377 129//378 130//379 123//380
f 123//381 130//382 131//383 124//384
f 125//385 132//386 133//387 126//388
f 126//389 133//390 134//391 127//392
f 127//393 134//394 135//395 128//396
f 128//397 135//398 136//399 129//400
f 129//401 136//402 137//403 130//404
f 130//405 137//406 138//407 131//408
f 132//409 139//410 140//411 133//412
f 133//413 140//414 141//415 134//416
f 134//417 141//418 142//419 135//420
f 135//421 142//422 143//423 136//424
f 136//425 143//426 144//427 137//428
f 137//429 144//430 145//431 138//432
f 146//433 147//434 149//435 148//436
f 150//437 151//438 153//439 152//440
f 154//441 155//442 157//443 156//444
f 158//445 159//446 161//447 160//448
f 162//449 163//450 165//451 164//452
f 166//453 167//454 169//455 168//456
f 170//457 171//458 173//459 172//460
f 174//461 175//462 177//463 176//464
f 178//465 179//466 181//467 180//468
f 182//469 183//470 185//471 184//472
